<svg xmlns="http://www.w3.org/2000/svg" xmlns:xlink="http://www.w3.org/1999/xlink" width="288" height="65" viewBox="0 0 288 65">
  <defs>
    <linearGradient id="linear-gradient" x1="0.208" y1="1.699" x2="0.744" y2="-0.682" gradientUnits="objectBoundingBox">
      <stop offset="0" stop-color="#fad61d"/>
      <stop offset="0.05" stop-color="#fad61d"/>
      <stop offset="0.497" stop-color="#e91c24"/>
      <stop offset="0.95" stop-color="#a13a91"/>
      <stop offset="1" stop-color="#a13a91"/>
    </linearGradient>
  </defs>
  <path id="Path_4885" data-name="Path 4885" d="M536.272,10231.622a15.583,15.583,0,1,0,15.555,15.584A15.568,15.568,0,0,0,536.272,10231.622Zm0,25.7a10.116,10.116,0,1,1,10.1-10.115A10.107,10.107,0,0,1,536.272,10257.321Zm19.8-26.314a3.634,3.634,0,1,1-3.634-3.643A3.637,3.637,0,0,1,556.074,10231.007Zm8.9-3.68a15.5,15.5,0,0,0-8.857-8.874,22.149,22.149,0,0,0-7.351-1.41c-3.231-.15-4.262-.183-12.489-.183s-9.254.032-12.486.183a22.142,22.142,0,0,0-7.35,1.41,15.5,15.5,0,0,0-8.859,8.874,22.335,22.335,0,0,0-1.408,7.367c-.147,3.237-.182,4.27-.182,12.512s.035,9.273.182,12.513a22.32,22.32,0,0,0,1.408,7.364,15.5,15.5,0,0,0,8.859,8.876,22.239,22.239,0,0,0,7.35,1.411c3.232.147,4.263.182,12.486.182s9.258-.034,12.489-.182a22.246,22.246,0,0,0,7.351-1.411,15.495,15.495,0,0,0,8.857-8.876,22.292,22.292,0,0,0,1.408-7.364c.147-3.239.182-4.272.182-12.513s-.035-9.274-.182-12.512A22.306,22.306,0,0,0,564.97,10227.327Zm-4.044,32.14a16.839,16.839,0,0,1-1.042,5.637,10.034,10.034,0,0,1-5.749,5.76,16.733,16.733,0,0,1-5.622,1.044c-3.194.145-4.151.177-12.24.177s-9.042-.032-12.237-.177a16.747,16.747,0,0,1-5.623-1.044,10.034,10.034,0,0,1-5.749-5.76,16.866,16.866,0,0,1-1.042-5.637c-.144-3.2-.176-4.158-.176-12.261s.032-9.063.176-12.263a16.838,16.838,0,0,1,1.042-5.634,10.032,10.032,0,0,1,5.749-5.761,16.722,16.722,0,0,1,5.623-1.044c3.195-.146,4.152-.177,12.237-.177s9.046.03,12.24.177a16.708,16.708,0,0,1,5.622,1.044,10.032,10.032,0,0,1,5.749,5.761,16.811,16.811,0,0,1,1.042,5.634c.146,3.2.178,4.159.178,12.263S561.072,10256.269,560.926,10259.467Zm232.127-6.452c-.615,0-.9.637-1.131,1.708-.809,3.729-1.656,4.57-2.75,4.57-1.224,0-2.322-1.847-2.6-5.542a124.028,124.028,0,0,1,.1-13.574c.06-1.093-.243-2.174-3.169-3.239-1.258-.458-3.089-1.133-4,1.07a54.888,54.888,0,0,0-3.818,13.181c-.013.1-.14.124-.163-.119a102,102,0,0,1-.53-10.673,3.2,3.2,0,0,0-1.581-3.052c-.857-.541-3.459-1.5-4.4-.359-.81.932-1.75,3.44-2.726,6.415-.795,2.417-1.346,4.053-1.346,4.053s.009-6.522.019-9a1.271,1.271,0,0,0-.828-1.3,17.522,17.522,0,0,0-3.3-.672c-.895,0-1.114.5-1.114,1.231,0,.094-.14,8.588-.14,14.523v.84c-.493,2.731-2.1,6.435-3.846,6.435s-2.572-1.548-2.572-8.627c0-4.129.124-5.927.184-8.915.036-1.719.105-3.039.1-3.341-.012-.918-1.6-1.382-2.337-1.553a7,7,0,0,0-1.89-.211,1.181,1.181,0,0,0-1.216,1.152c0,.349,0,1,0,1a6.831,6.831,0,0,0-3.377-2.741c-2.645-.786-5.406-.09-7.486,2.829a17.214,17.214,0,0,0-3.044,8.719,25.9,25.9,0,0,0,.316,7.923c-.615,2.67-1.758,3.763-3.013,3.763-1.818,0-3.137-2.974-2.985-8.118a46.553,46.553,0,0,1,1.517-9.192,2.985,2.985,0,0,0-.585-2.968c-.588-.672-1.842-1.02-3.646-.595-1.284.3-3.121.627-4.8.877a10.088,10.088,0,0,0,.184-1.122c.436-3.745-3.629-3.442-4.924-2.243a4.6,4.6,0,0,0-1.5,3.071,3.624,3.624,0,0,0,1.639,3.538,36.51,36.51,0,0,1-3.841,9.574,41.04,41.04,0,0,1-2.4,3.77c0-.436,0-.874-.005-1.311-.022-6.192.062-11.064.1-12.821.035-1.721.1-3.007.1-3.307-.01-.673-.4-.927-1.217-1.248a8.593,8.593,0,0,0-2.457-.549c-1.115-.088-1.788.506-1.769,1.207,0,.132,0,.944,0,.944a6.816,6.816,0,0,0-3.376-2.741c-2.645-.786-5.4-.09-7.485,2.829a18.692,18.692,0,0,0-3.046,8.691,26.714,26.714,0,0,0,.158,7.453c-.42,2.083-1.631,4.26-3,4.26-1.747,0-2.742-1.548-2.742-8.627,0-4.129.125-5.927.184-8.913.036-1.721.1-3.041.1-3.343-.014-.918-1.6-1.382-2.339-1.553a6.769,6.769,0,0,0-1.95-.207,1.256,1.256,0,0,0-1.152,1.109v1.041a6.819,6.819,0,0,0-3.375-2.741c-2.647-.786-5.39-.078-7.487,2.829-1.368,1.9-2.476,4-3.044,8.648a29.053,29.053,0,0,0-.228,3.779c-.545,3.344-2.954,7.2-4.925,7.2-1.153,0-2.251-2.241-2.251-7.017,0-6.361.393-15.419.458-16.29,0,0,2.492-.044,2.972-.047,1.245-.014,2.367.017,4.021-.069.829-.043,1.629-3.025.773-3.4a29.808,29.808,0,0,0-4.218-.335c-.914-.021-3.459-.21-3.459-.21s.228-6.01.282-6.646c.045-.531-.638-.8-1.03-.967a13.967,13.967,0,0,0-2.818-.807,4.355,4.355,0,0,0-.866-.1c-.8,0-1.192.378-1.287,1.279-.186,1.791-.283,7.041-.283,7.041-1.025,0-4.525-.2-5.548-.2-.954,0-1.981,4.1-.664,4.154,1.515.06,4.155.11,5.9.164,0,0-.078,9.205-.078,12.047q0,.454.005.876a13.9,13.9,0,0,1-4.357,7.746c.728-3.327-.758-5.826-3.441-7.94-.987-.78-2.937-2.254-5.117-3.87a13.224,13.224,0,0,0,2.385-3.759c.793-1.78.828-3.812-1.121-4.263-3.22-.741-5.874,1.628-6.667,4.158a4.83,4.83,0,0,0,.916,4.922c.087.112.183.222.281.336-.726,1.405-1.725,3.294-2.571,4.761-2.347,4.068-4.12,7.284-5.461,7.284-1.071,0-1.055-3.266-1.055-6.326,0-2.638.194-6.6.349-10.706a3,3,0,0,0-1.762-2.832,7.905,7.905,0,0,0-3.016-1.26c-1.276,0-4.959.171-8.44,10.259-.439,1.272-1.3,3.589-1.3,3.589l.076-12.131a.849.849,0,0,0-.5-.747,8.614,8.614,0,0,0-3.547-.97c-.662,0-.995.308-.995.924l-.122,18.979a27.775,27.775,0,0,0,.181,3.857,4.06,4.06,0,0,0,.656,1.693,1.885,1.885,0,0,0,1.154.738c.505.1,3.266.459,3.409-.6a38.941,38.941,0,0,1,1.628-7.748c2.257-7.956,5.2-11.839,6.582-13.217.242-.239.517-.255.5.141-.058,1.743-.266,6.1-.4,9.806-.376,9.91,1.424,11.746,3.995,11.746,1.968,0,4.741-1.958,7.711-6.916,1.853-3.09,3.653-6.118,4.946-8.3.9.837,1.912,1.736,2.922,2.7,2.35,2.232,3.12,4.354,2.608,6.367-.391,1.539-1.866,3.123-4.486,1.581-.766-.448-1.092-.8-1.859-1.3a1.321,1.321,0,0,0-1.422-.068,5.081,5.081,0,0,0-1.863,2.854c-.312,1.139.824,1.738,2,2.262a15.481,15.481,0,0,0,4.583.91c5.414.181,9.751-2.619,12.771-9.844.541,6.238,2.842,9.768,6.837,9.768,2.671,0,5.349-3.458,6.52-6.864a12.067,12.067,0,0,0,1.479,3.616c3.077,4.889,9.052,3.836,12.053-.314a7.733,7.733,0,0,0,1.069-1.744,5.651,5.651,0,0,0,5.392,5.289c2.021,0,4.107-.957,5.566-4.255a10.772,10.772,0,0,0,.563,1.024c3.081,4.889,9.054,3.836,12.055-.314.142-.2.265-.373.372-.531l.088,2.575s-1.712,1.573-2.764,2.538c-4.63,4.254-8.148,7.479-8.406,11.234-.33,4.79,3.546,6.571,6.479,6.8a8.261,8.261,0,0,0,7.42-3.89c1.443-2.122,2.388-6.693,2.317-11.208-.026-1.809-.074-4.106-.107-6.569a53.075,53.075,0,0,0,5.144-7.08,53.743,53.743,0,0,0,4.815-10.333s1.712.015,3.536-.1c.585-.039.754.08.646.511-.131.517-2.308,8.931-.322,14.535,1.36,3.835,4.426,5.068,6.244,5.068,2.127,0,4.16-1.608,5.254-4a7.97,7.97,0,0,0,.418.762c3.078,4.889,9.032,3.831,12.054-.314a12.534,12.534,0,0,0,1.07-1.744,5.862,5.862,0,0,0,5.6,5.31c1.878,0,3.66-.772,5.109-4.2a15.314,15.314,0,0,0,.3,3.134c.091.24.625.537,1.013.682a7.758,7.758,0,0,0,4.121.206c.448-.091.8-.452.848-1.387.126-2.446.049-6.56.788-9.618a28.3,28.3,0,0,1,2.955-8.105c.308-.554.655-.643.668-.06.025,1.185.083,4.655.565,9.316.356,3.433.827,5.46,1.191,6.1a3.351,3.351,0,0,0,3.359,1.921c.663,0,2.05-.186,1.926-1.352a37.287,37.287,0,0,1,1.271-9.142,44.5,44.5,0,0,1,2.617-7.372c.179-.4.26-.087.257-.025-.1,2.273-.328,9.709.6,13.776,1.253,5.508,4.876,6.124,6.139,6.124,2.7,0,4.9-2.053,5.645-7.462C794.112,10254.019,793.848,10253.015,793.053,10253.015Zm-112.943-3.344a17.626,17.626,0,0,1-1.606,6.991c-.841,1.634-2.107,2.688-3.328,2.688-1.131,0-2.223-.905-2.9-3.089-1.017-3.278-.67-7.745-.248-10.159.628-3.581,2.2-6.119,4.658-5.881C679.206,10240.469,680.433,10243.717,680.11,10249.671Zm24.646.041a19.52,19.52,0,0,1-1.607,6.95c-.816,1.644-2.1,2.7-3.328,2.7-1.143,0-2.245-.909-2.9-3.1a22.921,22.921,0,0,1-.248-9.686c.6-3.3,2.05-6.354,4.658-6.354C703.862,10240.222,705.114,10243.008,704.756,10249.712Zm.643,18.436c-.033,4.93-.807,9.253-2.469,10.509a3.67,3.67,0,0,1-2.2.783c-1.7,0-3.127-1.41-2.667-3.937.58-3.182,3.323-6.434,7.34-10.4C705.406,10265.1,705.414,10266,705.4,10268.147Zm42.544-18.406a17.462,17.462,0,0,1-1.606,6.921c-.818,1.643-2.089,2.7-3.319,2.7-1.14,0-2.244-.908-2.912-3.1a25.779,25.779,0,0,1-.247-10.09c.551-3.526,2.1-6.188,4.656-5.95C747.039,10240.46,748.221,10243.717,747.943,10249.741Zm-145.375-24.666c.109,5.55.061,14.781.057,17.934-.006,3.437,0,9.464-.132,13.261a15.034,15.034,0,0,1-2.439,8.466c-1.442,2.015-3.929,3.266-4.512,2.74-.521-.47.166-1.69.595-3.5.422-1.779.658-3.581.658-9.288,0-4.217.123-24.426.123-26.677,0-1.259.028-1.939-.554-1.45-3.134,2.631-5.625,8.629-5.056,14,.442,4.158,2.588,4.6,1.837,5.9-.638,1.11-8.418-2.277-6.548-10.288,1.477-6.324,6.15-11.358,10.4-13.141a3.131,3.131,0,0,1,1.194-.205C600.075,10222.83,602.548,10223.975,602.568,10225.075Z" transform="translate(-505.987 -10216.86)" fill="url(#linear-gradient)"/>
</svg>
